# xmcd CD database file
#
# Track frame offsets:
#	150
#	7655
#	30897
#	81647
#	108412
#	136635
#	138782
#
# Disc length: 2479 seconds
#
# Revision: 0
# Processed by: cddbd v1.5.1PL2 Copyright (c) Steve Scherf et al.
# Submitted via: CDex 1.51
#
DISCID=4409ad07
DTITLE=HOTEI - 2005.09.02 埼玉スーパーアリーナ
DYEAR=2005
DGENRE=Rock
TTITLE0=MC#1
TTITLE1=POISON(ブラスバージョン)
TTITLE2=FULL MOON PARTY
TTITLE3=バンビーナ
TTITLE4=Beat Sweet
TTITLE5=MC#2
TTITLE6=Run Baby Run
EXTD=YEAR: 2005
EXTT0=
EXTT1=
EXTT2=
EXTT3=
EXTT4=
EXTT5=
EXTT6=
PLAYORDER=
